<svg width="1000" height="1000" viewBox="0 0 1000 1000" fill="none" xmlns="http://www.w3.org/2000/svg">
  <rect width="1000" height="1000" rx="36" fill="#F7F1E8"/>
  <rect x="34" y="34" width="932" height="932" rx="30" fill="url(#bg)"/>
  <circle cx="232" cy="190" r="86" fill="#D8C3A5" fill-opacity="0.6"/>
  <g filter="url(#shadow)">
    <rect x="160" y="214" width="300" height="226" rx="28" fill="#FFFDF9"/>
    <circle cx="252" cy="294" r="36" fill="#D8C3A5"/>
    <rect x="308" y="266" width="102" height="18" rx="9" fill="#C49B66"/>
    <rect x="308" y="304" width="120" height="16" rx="8" fill="#D8C3A5"/>
    <rect x="204" y="362" width="212" height="24" rx="12" fill="#8C6A43"/>
  </g>
  <g filter="url(#shadow)">
    <path d="M678 230C734.333 230 780 275.667 780 332V368H576V332C576 275.667 621.667 230 678 230Z" fill="#D8C3A5"/>
    <rect x="536" y="344" width="284" height="258" rx="34" fill="#FFFDF9"/>
    <rect x="642" y="438" width="72" height="98" rx="28" fill="#8C6A43"/>
    <circle cx="678" cy="422" r="36" stroke="#8C6A43" stroke-width="16"/>
    <circle cx="678" cy="474" r="10" fill="#FFF9F1"/>
    <path d="M678 484V512" stroke="#FFF9F1" stroke-width="8" stroke-linecap="round"/>
  </g>
  <g filter="url(#shadow)">
    <rect x="196" y="544" width="608" height="238" rx="34" fill="#FFF9F1"/>
    <rect x="250" y="596" width="220" height="132" rx="24" fill="#F7F1E8"/>
    <path d="M534 610H724" stroke="#D8C3A5" stroke-width="18" stroke-linecap="round"/>
    <path d="M534 660H692" stroke="#D8C3A5" stroke-width="18" stroke-linecap="round"/>
    <path d="M534 710H640" stroke="#D8C3A5" stroke-width="18" stroke-linecap="round"/>
    <rect x="278" y="632" width="164" height="30" rx="15" fill="#8C6A43"/>
  </g>
  <path d="M276 824H724" stroke="#8C6A43" stroke-width="18" stroke-linecap="round" opacity="0.22"/>
  <defs>
    <linearGradient id="bg" x1="84" y1="58" x2="918" y2="946" gradientUnits="userSpaceOnUse">
      <stop stop-color="#FFF9F1"/>
      <stop offset="1" stop-color="#F0E0CD"/>
    </linearGradient>
    <filter id="shadow" x="128" y="188" width="724" height="626" filterUnits="userSpaceOnUse" color-interpolation-filters="sRGB">
      <feFlood flood-opacity="0" result="BackgroundImageFix"/>
      <feColorMatrix in="SourceAlpha" type="matrix" values="0 0 0 0 0 0 0 0 0 0 0 0 0 0 0 0 0 0 127 0" result="hardAlpha"/>
      <feOffset dy="14"/>
      <feGaussianBlur stdDeviation="16"/>
      <feComposite in2="hardAlpha" operator="out"/>
      <feColorMatrix type="matrix" values="0 0 0 0 0.184314 0 0 0 0 0.141176 0 0 0 0 0.105882 0 0 0 0.12 0"/>
      <feBlend mode="normal" in2="BackgroundImageFix" result="effect1_dropShadow_0_4"/>
      <feBlend mode="normal" in="SourceGraphic" in2="effect1_dropShadow_0_4" result="shape"/>
    </filter>
  </defs>
</svg>
