<svg width="1200" height="900" viewBox="0 0 1200 900" fill="none" xmlns="http://www.w3.org/2000/svg">
  <rect width="1200" height="900" rx="42" fill="#F7F1E8"/>
  <rect x="36" y="36" width="1128" height="828" rx="34" fill="url(#bg)"/>
  <circle cx="962" cy="174" r="86" fill="#D8C3A5" fill-opacity="0.55"/>
  <circle cx="962" cy="174" r="48" fill="#C49B66" fill-opacity="0.55"/>
  <path d="M152 636C152 505.109 258.109 399 389 399H811C941.891 399 1048 505.109 1048 636V744H152V636Z" fill="#2F241B" fill-opacity="0.08"/>
  <path d="M234 708C234 567.706 347.706 454 488 454H712C852.294 454 966 567.706 966 708V744H234V708Z" fill="#8C6A43" fill-opacity="0.12"/>
  <path d="M320 321C320 243.68 382.68 181 460 181H740C817.32 181 880 243.68 880 321V645H320V321Z" fill="#FFF9F1"/>
  <path d="M385 645V356C385 302.981 427.981 260 481 260H719C772.019 260 815 302.981 815 356V645" stroke="#8C6A43" stroke-width="18"/>
  <path d="M518 645V412C518 384.386 540.386 362 568 362H632C659.614 362 682 384.386 682 412V645" fill="#D8C3A5"/>
  <path d="M438 336C438 304.52 463.52 279 495 279H705C736.48 279 762 304.52 762 336V645H438V336Z" fill="#F7F1E8"/>
  <path d="M452 430H748" stroke="#D8C3A5" stroke-width="10" stroke-linecap="round"/>
  <path d="M452 476H748" stroke="#D8C3A5" stroke-width="10" stroke-linecap="round"/>
  <path d="M452 522H704" stroke="#D8C3A5" stroke-width="10" stroke-linecap="round"/>
  <g filter="url(#shadow)">
    <rect x="132" y="146" width="316" height="205" rx="28" fill="#FFFDF9"/>
    <rect x="164" y="186" width="114" height="16" rx="8" fill="#C49B66"/>
    <rect x="164" y="222" width="224" height="18" rx="9" fill="#D8C3A5"/>
    <rect x="164" y="258" width="196" height="18" rx="9" fill="#D8C3A5"/>
    <rect x="164" y="295" width="132" height="18" rx="9" fill="#8C6A43" fill-opacity="0.2"/>
  </g>
  <g filter="url(#shadow)">
    <rect x="752" y="520" width="304" height="175" rx="28" fill="#FFFDF9"/>
    <circle cx="812" cy="577" r="18" fill="#C49B66"/>
    <rect x="846" y="560" width="154" height="18" rx="9" fill="#D8C3A5"/>
    <rect x="846" y="596" width="110" height="16" rx="8" fill="#8C6A43" fill-opacity="0.2"/>
    <rect x="796" y="636" width="214" height="22" rx="11" fill="#8C6A43"/>
  </g>
  <g filter="url(#shadow)">
    <path d="M508 648L458 731C451.361 742.026 459.291 756 472.149 756H727.851C740.709 756 748.639 742.026 742 731L692 648H508Z" fill="#8C6A43"/>
    <path d="M600 510C645.839 510 686.095 531.814 708 564.879V656H492V564.879C513.905 531.814 554.161 510 600 510Z" fill="#C49B66"/>
    <path d="M510 578C536.537 557.948 568.081 547.922 600 547.922C631.919 547.922 663.463 557.948 690 578" stroke="#FFF9F1" stroke-width="10" stroke-linecap="round"/>
    <path d="M510 617C536.537 596.948 568.081 586.922 600 586.922C631.919 586.922 663.463 596.948 690 617" stroke="#FFF9F1" stroke-width="10" stroke-linecap="round"/>
  </g>
  <circle cx="214" cy="104" r="8" fill="#C49B66"/>
  <circle cx="248" cy="84" r="6" fill="#8C6A43" fill-opacity="0.35"/>
  <circle cx="986" cy="284" r="7" fill="#8C6A43" fill-opacity="0.3"/>
  <defs>
    <linearGradient id="bg" x1="78" y1="74" x2="1124" y2="854" gradientUnits="userSpaceOnUse">
      <stop stop-color="#FFF9F1"/>
      <stop offset="1" stop-color="#F1E5D5"/>
    </linearGradient>
    <filter id="shadow" x="96" y="120" width="996" height="672" filterUnits="userSpaceOnUse" color-interpolation-filters="sRGB">
      <feFlood flood-opacity="0" result="BackgroundImageFix"/>
      <feColorMatrix in="SourceAlpha" type="matrix" values="0 0 0 0 0 0 0 0 0 0 0 0 0 0 0 0 0 0 127 0" result="hardAlpha"/>
      <feOffset dy="16"/>
      <feGaussianBlur stdDeviation="18"/>
      <feComposite in2="hardAlpha" operator="out"/>
      <feColorMatrix type="matrix" values="0 0 0 0 0.184314 0 0 0 0 0.141176 0 0 0 0 0.105882 0 0 0 0.12 0"/>
      <feBlend mode="normal" in2="BackgroundImageFix" result="effect1_dropShadow_0_1"/>
      <feBlend mode="normal" in="SourceGraphic" in2="effect1_dropShadow_0_1" result="shape"/>
    </filter>
  </defs>
</svg>
